Encoded by Team Ratzz{  Encoder - Ratzz  }


General
Complete name                    :The Descendants 2011 720p Bluray x264 Ratzz.mp4
Format                           : MP-4
Format profile                   : Base Media
Codec ID                         : isom
File size                        : 899 MiB
Duration                         : 1h 55mn
Overall bit rate                 : 1 093 Kbps
Encoded date                     : UTC 2012-03-03 11:12:05
Tagged date                      : UTC 2012-03-03 11:12:05

Video
ID                               : 1
Format                           : AVC
Format/Info                      : Advanced Video Codec
Format profile                   : High@L4.0
Format settings, CABAC           : Yes
Format settings, ReFrames        : 2 frames
Codec ID                         : avc1
Codec ID/Info                    : Advanced Video Coding
Duration                         : 1h 55mn
Bit rate mode                    : Variable
Bit rate                         : 1 027 Kbps
Maximum bit rate                 : 25.0 Mbps
Width                            : 1 280 pixels
Height                           : 536 pixels
Display aspect ratio             : 2.35:1
Frame rate mode                  : Constant
Frame rate                       : 23.976 fps
Color space                      : YUV
Chroma subsampling               : 4:2:0
Bit depth                        : 8 bits
Scan type                        : Progressive
Bits/(Pixel*Frame)               : 0.062
Stream size                      : 844 MiB (94%)
Title                            : the descendants 2011 720p bluray x264 Ratzz
Encoded date                     : UTC 2012-03-03 11:12:05
Tagged date                      : UTC 2012-03-03 11:12:46

Audio
ID                               : 2
Format                           : AAC
Format/Info                      : Advanced Audio Codec
Format profile                   : HE-AAC / LC
Codec ID                         : 40
Duration                         : 1h 55mn
Bit rate mode                    : Variable
Bit rate                         : 64.0 Kbps
Maximum bit rate                 : 70.0 Kbps
Channel(s)                       : 2 channels
Channel positions                : Front: L R
Sampling rate                    : 48.0 KHz / 24.0 KHz
Compression mode                 : Lossy
Stream size                      : 52.7 MiB (6%)
Language                         : English
Encoded date                     : UTC 2012-03-03 11:12:36
Tagged date                      : UTC 2012-03-03 11:12:46


Subtitle                         : eng .srt file included




pls seed after download.
thank you.